<svg xmlns="http://www.w3.org/2000/svg" viewBox="0 0 800 300" width="800" height="300">
<rect width="800" height="300" fill="#0d0d0d"/>
<defs><radialGradient id="g4" cx="72%" cy="34%" r="60%">
<stop offset="0%" stop-color="#f5732b" stop-opacity="0.22"/>
<stop offset="45%" stop-color="#e0561c" stop-opacity="0.07"/>
<stop offset="72%" stop-color="#0d0d0d" stop-opacity="0"/></radialGradient></defs>
<rect width="800" height="300" fill="url(#g4)"/>
<rect x="60.0" y="128.9" width="8.3" height="42.3" rx="4.0" fill="#2a2e30" opacity="0.9"/><rect x="74.3" y="129.0" width="8.3" height="42.0" rx="4.0" fill="#2a2e30" opacity="0.9"/><rect x="88.6" y="120.3" width="8.3" height="59.4" rx="4.0" fill="#2a2e30" opacity="0.9"/><rect x="102.9" y="122.7" width="8.3" height="54.7" rx="4.0" fill="#2a2e30" opacity="0.9"/><rect x="117.2" y="122.1" width="8.3" height="55.7" rx="4.0" fill="#2a2e30" opacity="0.9"/><rect x="131.5" y="110.0" width="8.3" height="80.1" rx="4.0" fill="#2a2e30" opacity="0.9"/><rect x="145.8" y="90.8" width="8.3" height="118.5" rx="4.0" fill="#2a2e30" opacity="0.9"/><rect x="160.0" y="90.6" width="8.3" height="118.8" rx="4.0" fill="#2a2e30" opacity="0.9"/><rect x="174.3" y="88.6" width="8.3" height="122.7" rx="4.0" fill="#2a2e30" opacity="0.9"/><rect x="188.6" y="105.8" width="8.3" height="88.3" rx="4.0" fill="#2a2e30" opacity="0.9"/><rect x="202.9" y="93.0" width="8.3" height="113.9" rx="4.0" fill="#2a2e30" opacity="0.9"/><rect x="217.2" y="102.2" width="8.3" height="95.7" rx="4.0" fill="#2a2e30" opacity="0.9"/><rect x="231.5" y="106.3" width="8.3" height="87.5" rx="4.0" fill="#2a2e30" opacity="0.9"/><rect x="245.8" y="109.5" width="8.3" height="80.9" rx="4.0" fill="#2a2e30" opacity="0.9"/><rect x="260.1" y="107.2" width="8.3" height="85.6" rx="4.0" fill="#2a2e30" opacity="0.9"/><rect x="274.4" y="85.6" width="8.3" height="128.7" rx="4.0" fill="#2a2e30" opacity="0.9"/><rect x="288.7" y="93.3" width="8.3" height="113.4" rx="4.0" fill="#2a2e30" opacity="0.9"/><rect x="303.0" y="99.2" width="8.3" height="101.7" rx="4.0" fill="#2a2e30" opacity="0.9"/><rect x="317.2" y="105.2" width="8.3" height="89.6" rx="4.0" fill="#2a2e30" opacity="0.9"/><rect x="331.5" y="124.6" width="8.3" height="50.8" rx="4.0" fill="#2a2e30" opacity="0.9"/><rect x="345.8" y="127.1" width="8.3" height="45.7" rx="4.0" fill="#2a2e30" opacity="0.9"/><rect x="360.1" y="116.3" width="8.3" height="67.3" rx="4.0" fill="#2a2e30" opacity="0.9"/><rect x="374.4" y="107.3" width="8.3" height="85.4" rx="4.0" fill="#2a2e30" opacity="0.9"/><rect x="388.7" y="97.0" width="8.3" height="105.9" rx="4.0" fill="#2a2e30" opacity="0.9"/><rect x="403.0" y="89.3" width="8.3" height="121.3" rx="4.0" fill="#2a2e30" opacity="0.9"/><rect x="417.3" y="111.2" width="8.3" height="77.6" rx="4.0" fill="#2a2e30" opacity="0.9"/><rect x="431.6" y="87.7" width="8.3" height="124.5" rx="4.0" fill="#2a2e30" opacity="0.9"/><rect x="445.9" y="80.8" width="8.3" height="138.4" rx="4.0" fill="#2a2e30" opacity="0.9"/><rect x="460.2" y="84.5" width="8.3" height="131.0" rx="4.0" fill="#2a2e30" opacity="0.9"/><rect x="474.5" y="96.9" width="8.3" height="106.2" rx="4.0" fill="#2a2e30" opacity="0.9"/><rect x="488.8" y="82.2" width="8.3" height="135.7" rx="4.0" fill="#f5732b" opacity="0.95"/><rect x="503.0" y="99.4" width="8.3" height="101.1" rx="4.0" fill="#f5732b" opacity="0.95"/><rect x="517.3" y="60.7" width="8.3" height="178.7" rx="4.0" fill="#f5732b" opacity="0.95"/><rect x="531.6" y="65.3" width="8.3" height="169.4" rx="4.0" fill="#f5732b" opacity="0.95"/><rect x="545.9" y="81.8" width="8.3" height="136.5" rx="4.0" fill="#f5732b" opacity="0.95"/><rect x="560.2" y="95.0" width="8.3" height="110.0" rx="4.0" fill="#f5732b" opacity="0.95"/><rect x="574.5" y="73.4" width="8.3" height="153.3" rx="4.0" fill="#f5732b" opacity="0.95"/><rect x="588.8" y="90.8" width="8.3" height="118.5" rx="4.0" fill="#f5732b" opacity="0.95"/><rect x="603.1" y="84.1" width="8.3" height="131.7" rx="4.0" fill="#f5732b" opacity="0.95"/><rect x="617.4" y="90.5" width="8.3" height="119.0" rx="4.0" fill="#f5732b" opacity="0.95"/><rect x="631.7" y="105.7" width="8.3" height="88.6" rx="4.0" fill="#2a2e30" opacity="0.9"/><rect x="646.0" y="112.3" width="8.3" height="75.4" rx="4.0" fill="#2a2e30" opacity="0.9"/><rect x="660.2" y="111.4" width="8.3" height="77.2" rx="4.0" fill="#2a2e30" opacity="0.9"/><rect x="674.5" y="118.7" width="8.3" height="62.6" rx="4.0" fill="#2a2e30" opacity="0.9"/><rect x="688.8" y="126.8" width="8.3" height="46.5" rx="4.0" fill="#2a2e30" opacity="0.9"/><rect x="703.1" y="125.8" width="8.3" height="48.4" rx="4.0" fill="#2a2e30" opacity="0.9"/><rect x="717.4" y="118.2" width="8.3" height="63.7" rx="4.0" fill="#2a2e30" opacity="0.9"/><rect x="731.7" y="132.2" width="8.3" height="35.7" rx="4.0" fill="#2a2e30" opacity="0.9"/>
<rect x="0.5" y="0.5" width="799" height="299" fill="none" stroke="#242728"/>
</svg>