<svg xmlns="http://www.w3.org/2000/svg" viewBox="0 0 800 300" width="800" height="300">
<rect width="800" height="300" fill="#0d0d0d"/>
<defs><radialGradient id="g1" cx="30%" cy="34%" r="60%">
<stop offset="0%" stop-color="#f5732b" stop-opacity="0.22"/>
<stop offset="45%" stop-color="#e0561c" stop-opacity="0.07"/>
<stop offset="72%" stop-color="#0d0d0d" stop-opacity="0"/></radialGradient></defs>
<rect width="800" height="300" fill="url(#g1)"/>
<rect x="60.0" y="130.6" width="8.3" height="38.8" rx="4.0" fill="#2a2e30" opacity="0.9"/><rect x="74.3" y="114.5" width="8.3" height="71.0" rx="4.0" fill="#2a2e30" opacity="0.9"/><rect x="88.6" y="112.0" width="8.3" height="76.0" rx="4.0" fill="#2a2e30" opacity="0.9"/><rect x="102.9" y="119.9" width="8.3" height="60.1" rx="4.0" fill="#2a2e30" opacity="0.9"/><rect x="117.2" y="110.6" width="8.3" height="78.9" rx="4.0" fill="#2a2e30" opacity="0.9"/><rect x="131.5" y="108.4" width="8.3" height="83.2" rx="4.0" fill="#2a2e30" opacity="0.9"/><rect x="145.8" y="99.1" width="8.3" height="101.8" rx="4.0" fill="#f5732b" opacity="0.95"/><rect x="160.0" y="91.6" width="8.3" height="116.8" rx="4.0" fill="#f5732b" opacity="0.95"/><rect x="174.3" y="112.7" width="8.3" height="74.6" rx="4.0" fill="#f5732b" opacity="0.95"/><rect x="188.6" y="113.9" width="8.3" height="72.2" rx="4.0" fill="#f5732b" opacity="0.95"/><rect x="202.9" y="84.7" width="8.3" height="130.7" rx="4.0" fill="#f5732b" opacity="0.95"/><rect x="217.2" y="99.1" width="8.3" height="101.9" rx="4.0" fill="#f5732b" opacity="0.95"/><rect x="231.5" y="88.4" width="8.3" height="123.1" rx="4.0" fill="#f5732b" opacity="0.95"/><rect x="245.8" y="116.2" width="8.3" height="67.6" rx="4.0" fill="#f5732b" opacity="0.95"/><rect x="260.1" y="103.8" width="8.3" height="92.5" rx="4.0" fill="#f5732b" opacity="0.95"/><rect x="274.4" y="98.9" width="8.3" height="102.3" rx="4.0" fill="#f5732b" opacity="0.95"/><rect x="288.7" y="116.9" width="8.3" height="66.2" rx="4.0" fill="#f5732b" opacity="0.95"/><rect x="303.0" y="103.7" width="8.3" height="92.5" rx="4.0" fill="#f5732b" opacity="0.95"/><rect x="317.2" y="111.5" width="8.3" height="77.1" rx="4.0" fill="#2a2e30" opacity="0.9"/><rect x="331.5" y="131.8" width="8.3" height="36.5" rx="4.0" fill="#2a2e30" opacity="0.9"/><rect x="345.8" y="127.9" width="8.3" height="44.3" rx="4.0" fill="#2a2e30" opacity="0.9"/><rect x="360.1" y="110.6" width="8.3" height="78.7" rx="4.0" fill="#2a2e30" opacity="0.9"/><rect x="374.4" y="92.9" width="8.3" height="114.1" rx="4.0" fill="#2a2e30" opacity="0.9"/><rect x="388.7" y="104.2" width="8.3" height="91.6" rx="4.0" fill="#2a2e30" opacity="0.9"/><rect x="403.0" y="105.4" width="8.3" height="89.1" rx="4.0" fill="#2a2e30" opacity="0.9"/><rect x="417.3" y="93.5" width="8.3" height="113.0" rx="4.0" fill="#2a2e30" opacity="0.9"/><rect x="431.6" y="106.4" width="8.3" height="87.3" rx="4.0" fill="#2a2e30" opacity="0.9"/><rect x="445.9" y="95.5" width="8.3" height="108.9" rx="4.0" fill="#2a2e30" opacity="0.9"/><rect x="460.2" y="83.6" width="8.3" height="132.9" rx="4.0" fill="#2a2e30" opacity="0.9"/><rect x="474.5" y="79.3" width="8.3" height="141.4" rx="4.0" fill="#2a2e30" opacity="0.9"/><rect x="488.8" y="91.2" width="8.3" height="117.6" rx="4.0" fill="#2a2e30" opacity="0.9"/><rect x="503.0" y="91.5" width="8.3" height="117.0" rx="4.0" fill="#2a2e30" opacity="0.9"/><rect x="517.3" y="93.0" width="8.3" height="114.1" rx="4.0" fill="#2a2e30" opacity="0.9"/><rect x="531.6" y="83.5" width="8.3" height="132.9" rx="4.0" fill="#2a2e30" opacity="0.9"/><rect x="545.9" y="93.5" width="8.3" height="112.9" rx="4.0" fill="#2a2e30" opacity="0.9"/><rect x="560.2" y="107.5" width="8.3" height="85.0" rx="4.0" fill="#2a2e30" opacity="0.9"/><rect x="574.5" y="78.1" width="8.3" height="143.8" rx="4.0" fill="#2a2e30" opacity="0.9"/><rect x="588.8" y="93.3" width="8.3" height="113.3" rx="4.0" fill="#2a2e30" opacity="0.9"/><rect x="603.1" y="94.9" width="8.3" height="110.2" rx="4.0" fill="#2a2e30" opacity="0.9"/><rect x="617.4" y="113.7" width="8.3" height="72.7" rx="4.0" fill="#2a2e30" opacity="0.9"/><rect x="631.7" y="94.6" width="8.3" height="110.9" rx="4.0" fill="#2a2e30" opacity="0.9"/><rect x="646.0" y="103.2" width="8.3" height="93.6" rx="4.0" fill="#2a2e30" opacity="0.9"/><rect x="660.2" y="124.5" width="8.3" height="51.0" rx="4.0" fill="#2a2e30" opacity="0.9"/><rect x="674.5" y="122.4" width="8.3" height="55.2" rx="4.0" fill="#2a2e30" opacity="0.9"/><rect x="688.8" y="117.2" width="8.3" height="65.7" rx="4.0" fill="#2a2e30" opacity="0.9"/><rect x="703.1" y="119.4" width="8.3" height="61.2" rx="4.0" fill="#2a2e30" opacity="0.9"/><rect x="717.4" y="116.6" width="8.3" height="66.7" rx="4.0" fill="#2a2e30" opacity="0.9"/><rect x="731.7" y="125.7" width="8.3" height="48.6" rx="4.0" fill="#2a2e30" opacity="0.9"/>
<rect x="0.5" y="0.5" width="799" height="299" fill="none" stroke="#242728"/>
</svg>