<svg xmlns="http://www.w3.org/2000/svg" viewBox="0 0 800 300" width="800" height="300">
<rect width="800" height="300" fill="#0d0d0d"/>
<defs><radialGradient id="g5" cx="22%" cy="34%" r="60%">
<stop offset="0%" stop-color="#f5732b" stop-opacity="0.22"/>
<stop offset="45%" stop-color="#e0561c" stop-opacity="0.07"/>
<stop offset="72%" stop-color="#0d0d0d" stop-opacity="0"/></radialGradient></defs>
<rect width="800" height="300" fill="url(#g5)"/>
<rect x="60.0" y="122.2" width="8.3" height="55.5" rx="4.0" fill="#2a2e30" opacity="0.9"/><rect x="74.3" y="116.4" width="8.3" height="67.1" rx="4.0" fill="#2a2e30" opacity="0.9"/><rect x="88.6" y="111.9" width="8.3" height="76.1" rx="4.0" fill="#2a2e30" opacity="0.9"/><rect x="102.9" y="105.7" width="8.3" height="88.6" rx="4.0" fill="#2a2e30" opacity="0.9"/><rect x="117.2" y="108.3" width="8.3" height="83.5" rx="4.0" fill="#2a2e30" opacity="0.9"/><rect x="131.5" y="102.5" width="8.3" height="95.0" rx="4.0" fill="#2a2e30" opacity="0.9"/><rect x="145.8" y="124.4" width="8.3" height="51.3" rx="4.0" fill="#2a2e30" opacity="0.9"/><rect x="160.0" y="114.0" width="8.3" height="72.0" rx="4.0" fill="#2a2e30" opacity="0.9"/><rect x="174.3" y="104.0" width="8.3" height="92.0" rx="4.0" fill="#2a2e30" opacity="0.9"/><rect x="188.6" y="113.3" width="8.3" height="73.4" rx="4.0" fill="#2a2e30" opacity="0.9"/><rect x="202.9" y="111.4" width="8.3" height="77.2" rx="4.0" fill="#2a2e30" opacity="0.9"/><rect x="217.2" y="130.1" width="8.3" height="39.8" rx="4.0" fill="#2a2e30" opacity="0.9"/><rect x="231.5" y="121.9" width="8.3" height="56.2" rx="4.0" fill="#2a2e30" opacity="0.9"/><rect x="245.8" y="122.2" width="8.3" height="55.6" rx="4.0" fill="#2a2e30" opacity="0.9"/><rect x="260.1" y="110.3" width="8.3" height="79.4" rx="4.0" fill="#f5732b" opacity="0.95"/><rect x="274.4" y="103.9" width="8.3" height="92.2" rx="4.0" fill="#f5732b" opacity="0.95"/><rect x="288.7" y="116.7" width="8.3" height="66.7" rx="4.0" fill="#f5732b" opacity="0.95"/><rect x="303.0" y="105.6" width="8.3" height="88.7" rx="4.0" fill="#f5732b" opacity="0.95"/><rect x="317.2" y="99.0" width="8.3" height="102.0" rx="4.0" fill="#f5732b" opacity="0.95"/><rect x="331.5" y="67.5" width="8.3" height="164.9" rx="4.0" fill="#f5732b" opacity="0.95"/><rect x="345.8" y="69.1" width="8.3" height="161.8" rx="4.0" fill="#f5732b" opacity="0.95"/><rect x="360.1" y="94.1" width="8.3" height="111.8" rx="4.0" fill="#2a2e30" opacity="0.9"/><rect x="374.4" y="60.0" width="8.3" height="180.0" rx="4.0" fill="#2a2e30" opacity="0.9"/><rect x="388.7" y="91.5" width="8.3" height="117.1" rx="4.0" fill="#2a2e30" opacity="0.9"/><rect x="403.0" y="65.7" width="8.3" height="168.7" rx="4.0" fill="#2a2e30" opacity="0.9"/><rect x="417.3" y="91.1" width="8.3" height="117.8" rx="4.0" fill="#2a2e30" opacity="0.9"/><rect x="431.6" y="98.1" width="8.3" height="103.7" rx="4.0" fill="#2a2e30" opacity="0.9"/><rect x="445.9" y="55.1" width="8.3" height="189.7" rx="4.0" fill="#2a2e30" opacity="0.9"/><rect x="460.2" y="90.7" width="8.3" height="118.7" rx="4.0" fill="#2a2e30" opacity="0.9"/><rect x="474.5" y="93.0" width="8.3" height="114.1" rx="4.0" fill="#2a2e30" opacity="0.9"/><rect x="488.8" y="62.1" width="8.3" height="175.8" rx="4.0" fill="#2a2e30" opacity="0.9"/><rect x="503.0" y="72.4" width="8.3" height="155.1" rx="4.0" fill="#2a2e30" opacity="0.9"/><rect x="517.3" y="100.7" width="8.3" height="98.6" rx="4.0" fill="#2a2e30" opacity="0.9"/><rect x="531.6" y="81.6" width="8.3" height="136.8" rx="4.0" fill="#2a2e30" opacity="0.9"/><rect x="545.9" y="101.6" width="8.3" height="96.9" rx="4.0" fill="#2a2e30" opacity="0.9"/><rect x="560.2" y="102.9" width="8.3" height="94.3" rx="4.0" fill="#2a2e30" opacity="0.9"/><rect x="574.5" y="120.0" width="8.3" height="59.9" rx="4.0" fill="#2a2e30" opacity="0.9"/><rect x="588.8" y="107.5" width="8.3" height="85.0" rx="4.0" fill="#2a2e30" opacity="0.9"/><rect x="603.1" y="117.5" width="8.3" height="65.0" rx="4.0" fill="#2a2e30" opacity="0.9"/><rect x="617.4" y="116.1" width="8.3" height="67.7" rx="4.0" fill="#2a2e30" opacity="0.9"/><rect x="631.7" y="114.0" width="8.3" height="72.0" rx="4.0" fill="#2a2e30" opacity="0.9"/><rect x="646.0" y="123.6" width="8.3" height="52.7" rx="4.0" fill="#2a2e30" opacity="0.9"/><rect x="660.2" y="121.3" width="8.3" height="57.3" rx="4.0" fill="#2a2e30" opacity="0.9"/><rect x="674.5" y="125.2" width="8.3" height="49.6" rx="4.0" fill="#2a2e30" opacity="0.9"/><rect x="688.8" y="126.0" width="8.3" height="48.0" rx="4.0" fill="#2a2e30" opacity="0.9"/><rect x="703.1" y="128.6" width="8.3" height="42.8" rx="4.0" fill="#2a2e30" opacity="0.9"/><rect x="717.4" y="125.5" width="8.3" height="48.9" rx="4.0" fill="#2a2e30" opacity="0.9"/><rect x="731.7" y="122.6" width="8.3" height="54.8" rx="4.0" fill="#2a2e30" opacity="0.9"/>
<rect x="0.5" y="0.5" width="799" height="299" fill="none" stroke="#242728"/>
</svg>