<svg xmlns="http://www.w3.org/2000/svg" viewBox="0 0 800 300" width="800" height="300">
<rect width="800" height="300" fill="#0d0d0d"/>
<defs><radialGradient id="g2" cx="62%" cy="34%" r="60%">
<stop offset="0%" stop-color="#f5732b" stop-opacity="0.22"/>
<stop offset="45%" stop-color="#e0561c" stop-opacity="0.07"/>
<stop offset="72%" stop-color="#0d0d0d" stop-opacity="0"/></radialGradient></defs>
<rect width="800" height="300" fill="url(#g2)"/>
<rect x="60.0" y="116.6" width="8.3" height="66.9" rx="4.0" fill="#2a2e30" opacity="0.9"/><rect x="74.3" y="112.8" width="8.3" height="74.5" rx="4.0" fill="#2a2e30" opacity="0.9"/><rect x="88.6" y="128.0" width="8.3" height="44.0" rx="4.0" fill="#2a2e30" opacity="0.9"/><rect x="102.9" y="126.0" width="8.3" height="48.1" rx="4.0" fill="#2a2e30" opacity="0.9"/><rect x="117.2" y="107.7" width="8.3" height="84.5" rx="4.0" fill="#2a2e30" opacity="0.9"/><rect x="131.5" y="109.4" width="8.3" height="81.2" rx="4.0" fill="#2a2e30" opacity="0.9"/><rect x="145.8" y="111.2" width="8.3" height="77.6" rx="4.0" fill="#2a2e30" opacity="0.9"/><rect x="160.0" y="120.6" width="8.3" height="58.9" rx="4.0" fill="#2a2e30" opacity="0.9"/><rect x="174.3" y="115.9" width="8.3" height="68.3" rx="4.0" fill="#2a2e30" opacity="0.9"/><rect x="188.6" y="118.7" width="8.3" height="62.6" rx="4.0" fill="#2a2e30" opacity="0.9"/><rect x="202.9" y="122.8" width="8.3" height="54.4" rx="4.0" fill="#2a2e30" opacity="0.9"/><rect x="217.2" y="127.2" width="8.3" height="45.6" rx="4.0" fill="#2a2e30" opacity="0.9"/><rect x="231.5" y="117.5" width="8.3" height="64.9" rx="4.0" fill="#2a2e30" opacity="0.9"/><rect x="245.8" y="113.8" width="8.3" height="72.4" rx="4.0" fill="#2a2e30" opacity="0.9"/><rect x="260.1" y="99.2" width="8.3" height="101.5" rx="4.0" fill="#2a2e30" opacity="0.9"/><rect x="274.4" y="84.2" width="8.3" height="131.6" rx="4.0" fill="#2a2e30" opacity="0.9"/><rect x="288.7" y="78.8" width="8.3" height="142.3" rx="4.0" fill="#2a2e30" opacity="0.9"/><rect x="303.0" y="88.4" width="8.3" height="123.1" rx="4.0" fill="#2a2e30" opacity="0.9"/><rect x="317.2" y="87.9" width="8.3" height="124.3" rx="4.0" fill="#2a2e30" opacity="0.9"/><rect x="331.5" y="91.9" width="8.3" height="116.2" rx="4.0" fill="#2a2e30" opacity="0.9"/><rect x="345.8" y="100.1" width="8.3" height="99.9" rx="4.0" fill="#f5732b" opacity="0.95"/><rect x="360.1" y="98.5" width="8.3" height="103.0" rx="4.0" fill="#f5732b" opacity="0.95"/><rect x="374.4" y="74.6" width="8.3" height="150.8" rx="4.0" fill="#f5732b" opacity="0.95"/><rect x="388.7" y="81.1" width="8.3" height="137.8" rx="4.0" fill="#f5732b" opacity="0.95"/><rect x="403.0" y="77.7" width="8.3" height="144.7" rx="4.0" fill="#f5732b" opacity="0.95"/><rect x="417.3" y="51.7" width="8.3" height="196.6" rx="4.0" fill="#f5732b" opacity="0.95"/><rect x="431.6" y="72.3" width="8.3" height="155.4" rx="4.0" fill="#f5732b" opacity="0.95"/><rect x="445.9" y="73.0" width="8.3" height="153.9" rx="4.0" fill="#f5732b" opacity="0.95"/><rect x="460.2" y="91.7" width="8.3" height="116.7" rx="4.0" fill="#2a2e30" opacity="0.9"/><rect x="474.5" y="104.3" width="8.3" height="91.4" rx="4.0" fill="#2a2e30" opacity="0.9"/><rect x="488.8" y="94.8" width="8.3" height="110.5" rx="4.0" fill="#2a2e30" opacity="0.9"/><rect x="503.0" y="106.3" width="8.3" height="87.4" rx="4.0" fill="#2a2e30" opacity="0.9"/><rect x="517.3" y="97.1" width="8.3" height="105.9" rx="4.0" fill="#2a2e30" opacity="0.9"/><rect x="531.6" y="86.9" width="8.3" height="126.2" rx="4.0" fill="#2a2e30" opacity="0.9"/><rect x="545.9" y="103.0" width="8.3" height="94.1" rx="4.0" fill="#2a2e30" opacity="0.9"/><rect x="560.2" y="120.7" width="8.3" height="58.5" rx="4.0" fill="#2a2e30" opacity="0.9"/><rect x="574.5" y="109.0" width="8.3" height="81.9" rx="4.0" fill="#2a2e30" opacity="0.9"/><rect x="588.8" y="116.2" width="8.3" height="67.6" rx="4.0" fill="#2a2e30" opacity="0.9"/><rect x="603.1" y="119.1" width="8.3" height="61.7" rx="4.0" fill="#2a2e30" opacity="0.9"/><rect x="617.4" y="112.3" width="8.3" height="75.4" rx="4.0" fill="#2a2e30" opacity="0.9"/><rect x="631.7" y="112.6" width="8.3" height="74.9" rx="4.0" fill="#2a2e30" opacity="0.9"/><rect x="646.0" y="110.3" width="8.3" height="79.3" rx="4.0" fill="#2a2e30" opacity="0.9"/><rect x="660.2" y="119.5" width="8.3" height="61.1" rx="4.0" fill="#2a2e30" opacity="0.9"/><rect x="674.5" y="105.6" width="8.3" height="88.7" rx="4.0" fill="#2a2e30" opacity="0.9"/><rect x="688.8" y="107.4" width="8.3" height="85.2" rx="4.0" fill="#2a2e30" opacity="0.9"/><rect x="703.1" y="126.1" width="8.3" height="47.8" rx="4.0" fill="#2a2e30" opacity="0.9"/><rect x="717.4" y="116.7" width="8.3" height="66.7" rx="4.0" fill="#2a2e30" opacity="0.9"/><rect x="731.7" y="120.7" width="8.3" height="58.7" rx="4.0" fill="#2a2e30" opacity="0.9"/>
<rect x="0.5" y="0.5" width="799" height="299" fill="none" stroke="#242728"/>
</svg>