<svg xmlns="http://www.w3.org/2000/svg" viewBox="0 0 800 300" width="800" height="300">
<rect width="800" height="300" fill="#0d0d0d"/>
<defs><radialGradient id="g3" cx="48%" cy="34%" r="60%">
<stop offset="0%" stop-color="#f5732b" stop-opacity="0.22"/>
<stop offset="45%" stop-color="#e0561c" stop-opacity="0.07"/>
<stop offset="72%" stop-color="#0d0d0d" stop-opacity="0"/></radialGradient></defs>
<rect width="800" height="300" fill="url(#g3)"/>
<rect x="60.0" y="128.8" width="8.3" height="42.3" rx="4.0" fill="#2a2e30" opacity="0.9"/><rect x="74.3" y="123.5" width="8.3" height="53.0" rx="4.0" fill="#2a2e30" opacity="0.9"/><rect x="88.6" y="126.0" width="8.3" height="48.0" rx="4.0" fill="#f5732b" opacity="0.95"/><rect x="102.9" y="120.3" width="8.3" height="59.3" rx="4.0" fill="#f5732b" opacity="0.95"/><rect x="117.2" y="117.5" width="8.3" height="64.9" rx="4.0" fill="#f5732b" opacity="0.95"/><rect x="131.5" y="126.7" width="8.3" height="46.7" rx="4.0" fill="#f5732b" opacity="0.95"/><rect x="145.8" y="125.5" width="8.3" height="49.0" rx="4.0" fill="#f5732b" opacity="0.95"/><rect x="160.0" y="100.8" width="8.3" height="98.5" rx="4.0" fill="#f5732b" opacity="0.95"/><rect x="174.3" y="112.7" width="8.3" height="74.6" rx="4.0" fill="#2a2e30" opacity="0.9"/><rect x="188.6" y="109.8" width="8.3" height="80.3" rx="4.0" fill="#2a2e30" opacity="0.9"/><rect x="202.9" y="79.2" width="8.3" height="141.6" rx="4.0" fill="#2a2e30" opacity="0.9"/><rect x="217.2" y="93.7" width="8.3" height="112.7" rx="4.0" fill="#2a2e30" opacity="0.9"/><rect x="231.5" y="74.8" width="8.3" height="150.5" rx="4.0" fill="#2a2e30" opacity="0.9"/><rect x="245.8" y="86.0" width="8.3" height="128.0" rx="4.0" fill="#2a2e30" opacity="0.9"/><rect x="260.1" y="75.7" width="8.3" height="148.6" rx="4.0" fill="#2a2e30" opacity="0.9"/><rect x="274.4" y="96.1" width="8.3" height="107.9" rx="4.0" fill="#2a2e30" opacity="0.9"/><rect x="288.7" y="71.7" width="8.3" height="156.7" rx="4.0" fill="#2a2e30" opacity="0.9"/><rect x="303.0" y="59.6" width="8.3" height="180.8" rx="4.0" fill="#2a2e30" opacity="0.9"/><rect x="317.2" y="76.5" width="8.3" height="147.0" rx="4.0" fill="#2a2e30" opacity="0.9"/><rect x="331.5" y="67.2" width="8.3" height="165.6" rx="4.0" fill="#2a2e30" opacity="0.9"/><rect x="345.8" y="72.7" width="8.3" height="154.5" rx="4.0" fill="#2a2e30" opacity="0.9"/><rect x="360.1" y="102.8" width="8.3" height="94.3" rx="4.0" fill="#2a2e30" opacity="0.9"/><rect x="374.4" y="76.3" width="8.3" height="147.4" rx="4.0" fill="#2a2e30" opacity="0.9"/><rect x="388.7" y="87.9" width="8.3" height="124.2" rx="4.0" fill="#2a2e30" opacity="0.9"/><rect x="403.0" y="103.5" width="8.3" height="93.0" rx="4.0" fill="#2a2e30" opacity="0.9"/><rect x="417.3" y="116.8" width="8.3" height="66.3" rx="4.0" fill="#2a2e30" opacity="0.9"/><rect x="431.6" y="97.1" width="8.3" height="105.8" rx="4.0" fill="#2a2e30" opacity="0.9"/><rect x="445.9" y="114.0" width="8.3" height="72.0" rx="4.0" fill="#2a2e30" opacity="0.9"/><rect x="460.2" y="114.7" width="8.3" height="70.5" rx="4.0" fill="#2a2e30" opacity="0.9"/><rect x="474.5" y="117.1" width="8.3" height="65.8" rx="4.0" fill="#2a2e30" opacity="0.9"/><rect x="488.8" y="113.8" width="8.3" height="72.4" rx="4.0" fill="#2a2e30" opacity="0.9"/><rect x="503.0" y="103.0" width="8.3" height="93.9" rx="4.0" fill="#2a2e30" opacity="0.9"/><rect x="517.3" y="111.8" width="8.3" height="76.4" rx="4.0" fill="#2a2e30" opacity="0.9"/><rect x="531.6" y="96.2" width="8.3" height="107.7" rx="4.0" fill="#2a2e30" opacity="0.9"/><rect x="545.9" y="103.9" width="8.3" height="92.2" rx="4.0" fill="#2a2e30" opacity="0.9"/><rect x="560.2" y="85.5" width="8.3" height="129.1" rx="4.0" fill="#2a2e30" opacity="0.9"/><rect x="574.5" y="85.7" width="8.3" height="128.6" rx="4.0" fill="#2a2e30" opacity="0.9"/><rect x="588.8" y="112.1" width="8.3" height="75.8" rx="4.0" fill="#2a2e30" opacity="0.9"/><rect x="603.1" y="111.0" width="8.3" height="77.9" rx="4.0" fill="#2a2e30" opacity="0.9"/><rect x="617.4" y="109.2" width="8.3" height="81.6" rx="4.0" fill="#2a2e30" opacity="0.9"/><rect x="631.7" y="86.5" width="8.3" height="126.9" rx="4.0" fill="#2a2e30" opacity="0.9"/><rect x="646.0" y="106.0" width="8.3" height="88.0" rx="4.0" fill="#2a2e30" opacity="0.9"/><rect x="660.2" y="103.4" width="8.3" height="93.2" rx="4.0" fill="#2a2e30" opacity="0.9"/><rect x="674.5" y="115.6" width="8.3" height="68.8" rx="4.0" fill="#2a2e30" opacity="0.9"/><rect x="688.8" y="113.7" width="8.3" height="72.5" rx="4.0" fill="#2a2e30" opacity="0.9"/><rect x="703.1" y="120.0" width="8.3" height="60.0" rx="4.0" fill="#2a2e30" opacity="0.9"/><rect x="717.4" y="123.9" width="8.3" height="52.1" rx="4.0" fill="#2a2e30" opacity="0.9"/><rect x="731.7" y="122.9" width="8.3" height="54.2" rx="4.0" fill="#2a2e30" opacity="0.9"/>
<rect x="0.5" y="0.5" width="799" height="299" fill="none" stroke="#242728"/>
</svg>