<svg xmlns="http://www.w3.org/2000/svg" width="72.134" height="18.084" viewBox="0 0 72.134 18.084" fill="none">
  <path d="M 70.219 14.038 C 69.272 14.038 68.531 13.781 68.004 13.266 C 67.474 12.75 67.209 12.035 67.209 11.127 L 67.209 5.501 L 65.51 5.501 L 65.51 3.394 L 67.219 3.394 L 67.523 0.581 L 69.524 0.581 L 69.524 3.394 L 72.134 3.394 L 72.134 5.504 L 69.524 5.504 L 69.524 10.823 C 69.518 11.113 69.626 11.393 69.824 11.605 C 69.925 11.713 70.049 11.798 70.187 11.855 C 70.324 11.911 70.472 11.937 70.621 11.931 L 72.132 11.931 L 72.132 14.039 L 70.219 14.039 L 70.219 14.038 Z M 60.001 14.237 C 58.739 14.237 57.723 13.936 56.954 13.335 C 56.19 12.737 55.667 11.885 55.479 10.933 L 57.99 10.933 C 58.099 11.299 58.343 11.61 58.672 11.803 C 59.075 12.036 59.536 12.15 60.001 12.131 C 61.341 12.131 62.013 11.756 62.013 11.033 C 62.013 10.672 61.802 10.395 61.382 10.205 C 60.892 9.996 60.38 9.843 59.856 9.749 C 59.248 9.633 58.646 9.486 58.054 9.309 C 57.449 9.13 56.912 8.772 56.514 8.283 C 56.096 7.783 55.884 7.126 55.884 6.313 C 55.878 5.885 55.97 5.46 56.154 5.074 C 56.338 4.687 56.609 4.348 56.945 4.082 C 57.655 3.49 58.639 3.194 59.898 3.195 C 61.157 3.195 62.148 3.476 62.898 4.038 C 63.635 4.596 64.142 5.405 64.322 6.312 L 61.807 6.312 C 61.54 5.642 60.905 5.307 59.904 5.307 C 58.829 5.307 58.295 5.644 58.295 6.315 C 58.296 6.469 58.339 6.62 58.419 6.752 C 58.498 6.884 58.612 6.992 58.747 7.065 C 59.091 7.276 59.474 7.412 59.872 7.47 C 60.371 7.554 60.865 7.669 61.349 7.811 C 61.853 7.955 62.345 8.131 62.825 8.339 C 63.293 8.552 63.689 8.896 63.963 9.33 C 64.282 9.84 64.44 10.434 64.419 11.035 C 64.429 11.483 64.332 11.926 64.137 12.328 C 63.941 12.731 63.652 13.081 63.294 13.349 C 62.545 13.94 61.447 14.236 60.001 14.237 Z M 52.515 4.258 C 51.742 3.563 50.657 3.215 49.266 3.215 C 48.152 3.215 47.221 3.514 46.47 4.113 C 45.723 4.695 45.194 5.512 44.97 6.432 L 47.344 6.432 C 47.464 6.084 47.695 5.784 48 5.579 C 48.37 5.33 48.81 5.205 49.256 5.224 C 49.815 5.193 50.365 5.371 50.8 5.724 C 50.991 5.902 51.14 6.121 51.238 6.363 C 51.335 6.606 51.377 6.867 51.362 7.127 L 51.362 7.638 L 48.655 7.638 C 47.4 7.638 46.417 7.95 45.709 8.576 C 45.368 8.868 45.096 9.231 44.912 9.64 C 44.728 10.049 44.637 10.494 44.646 10.943 C 44.632 11.387 44.712 11.83 44.883 12.241 C 45.054 12.652 45.31 13.022 45.635 13.325 C 46.296 13.951 47.17 14.263 48.26 14.263 C 48.935 14.279 49.604 14.124 50.203 13.812 C 50.685 13.577 51.093 13.214 51.381 12.762 L 51.478 12.762 L 51.666 14.074 L 53.675 14.074 L 53.675 7.136 C 53.677 5.917 53.29 4.958 52.515 4.258 Z M 51.373 9.945 C 51.387 10.261 51.331 10.576 51.209 10.868 C 51.088 11.159 50.904 11.421 50.67 11.633 C 50.204 12.047 49.569 12.254 48.763 12.254 C 48.177 12.254 47.726 12.121 47.416 11.856 C 47.266 11.734 47.145 11.579 47.064 11.403 C 46.983 11.227 46.943 11.034 46.948 10.841 C 46.948 9.903 47.561 9.438 48.764 9.438 L 51.373 9.438 L 51.373 9.945 Z M 38.618 14.261 C 37.095 14.261 35.878 13.771 34.965 12.793 C 34.056 11.816 33.596 10.464 33.596 8.736 C 33.596 7.006 34.054 5.66 34.961 4.68 C 35.868 3.701 37.089 3.215 38.618 3.215 C 39.86 3.215 40.891 3.546 41.708 4.21 C 42.51 4.849 43.082 5.733 43.336 6.727 L 41.033 6.727 C 40.807 6.286 40.46 5.92 40.032 5.671 C 39.604 5.422 39.114 5.302 38.619 5.324 C 38.244 5.31 37.871 5.384 37.529 5.538 C 37.187 5.693 36.885 5.924 36.647 6.214 C 36.148 6.811 35.897 7.651 35.897 8.734 C 35.897 9.819 36.148 10.66 36.647 11.257 C 36.884 11.548 37.186 11.78 37.528 11.935 C 37.869 12.091 38.243 12.165 38.618 12.152 C 39.113 12.173 39.603 12.052 40.031 11.802 C 40.459 11.553 40.806 11.186 41.032 10.746 L 43.336 10.746 C 43.082 11.741 42.51 12.625 41.707 13.266 C 40.894 13.928 39.864 14.261 38.618 14.261 Z M 25.035 18.084 L 26.641 14.064 L 22.325 3.419 L 24.837 3.419 L 27.75 10.952 L 27.846 10.952 L 30.764 3.419 L 33.274 3.419 L 27.444 18.084 L 25.035 18.084 Z M 20.156 4.258 C 19.383 3.562 18.299 3.215 16.905 3.215 C 15.793 3.215 14.862 3.514 14.109 4.113 C 13.366 4.696 12.841 5.513 12.621 6.432 L 14.993 6.432 C 15.114 6.084 15.343 5.784 15.649 5.579 C 16.02 5.33 16.46 5.206 16.905 5.224 C 17.557 5.224 18.073 5.392 18.448 5.724 C 18.639 5.902 18.789 6.12 18.886 6.363 C 18.984 6.605 19.026 6.867 19.01 7.127 L 19.01 7.638 L 16.291 7.638 C 15.042 7.638 14.06 7.95 13.346 8.576 C 13.005 8.867 12.732 9.23 12.548 9.64 C 12.364 10.049 12.273 10.494 12.281 10.943 C 12.268 11.386 12.35 11.827 12.521 12.236 C 12.691 12.645 12.947 13.014 13.271 13.316 C 13.931 13.942 14.807 14.254 15.896 14.254 C 16.571 14.269 17.239 14.114 17.837 13.802 C 18.32 13.568 18.728 13.205 19.016 12.752 L 19.112 12.752 L 19.311 14.065 L 21.318 14.065 L 21.318 7.126 C 21.318 5.913 20.931 4.958 20.157 4.258 L 20.156 4.258 Z M 19.01 9.945 C 19.024 10.261 18.968 10.576 18.847 10.868 C 18.725 11.159 18.541 11.421 18.307 11.633 C 17.843 12.047 17.205 12.254 16.399 12.254 C 15.813 12.254 15.362 12.121 15.052 11.856 C 14.901 11.733 14.781 11.578 14.7 11.402 C 14.619 11.226 14.579 11.034 14.583 10.841 C 14.591 9.908 15.196 9.44 16.399 9.438 L 19.01 9.438 L 19.01 9.945 Z M 7.131 8.736 C 7.489 8.641 7.835 8.505 8.162 8.33 C 8.544 8.121 8.902 7.869 9.227 7.58 C 9.621 7.217 9.925 6.768 10.114 6.267 C 10.342 5.679 10.454 5.053 10.446 4.422 C 10.446 3.083 10.018 2.01 9.164 1.204 C 8.309 0.397 7.195 -0.003 5.827 0 L 0 0 L 0 14.065 L 2.511 14.065 L 2.511 8.845 L 4.416 8.845 L 8.034 14.062 L 10.847 14.062 L 7.132 8.734 L 7.131 8.736 Z M 2.511 6.619 L 2.511 2.212 L 5.621 2.212 C 6.334 2.212 6.896 2.399 7.309 2.791 C 7.721 3.183 7.931 3.719 7.931 4.415 C 7.931 5.111 7.724 5.655 7.305 6.043 C 6.846 6.442 6.251 6.649 5.641 6.619 L 2.511 6.619 Z" fill="#FFFFFF" fill-rule="nonzero"></path>
</svg>